<?xml version="1.0" encoding="utf-8" standalone="no"?>
<!DOCTYPE svg PUBLIC "-//W3C//DTD SVG 1.1//EN"
  "http://www.w3.org/Graphics/SVG/1.1/DTD/svg11.dtd">
<!-- Created with matplotlib (http://matplotlib.org/) -->
<svg height="576pt" version="1.1" viewBox="0 0 864 576" width="864pt" xmlns="http://www.w3.org/2000/svg" xmlns:xlink="http://www.w3.org/1999/xlink">
 <defs>
  <style type="text/css">
*{stroke-linecap:butt;stroke-linejoin:round;}
  </style>
 </defs>
 <g id="figure_1">
  <g id="patch_1">
   <path d="M 0 576 
L 864 576 
L 864 0 
L 0 0 
z
" style="fill:#ffffff;"/>
  </g>
  <g id="axes_1">
   <g id="patch_2">
    <path d="M 108 504 
L 777.6 504 
L 777.6 69.12 
L 108 69.12 
z
" style="fill:#eaeaf2;"/>
   </g>
   <g id="matplotlib.axis_1">
    <g id="xtick_1">
     <g id="line2d_1"/>
     <g id="text_1">
      <!-- 1024 -->
      <defs>
       <path d="M 37.25 0 
L 28.46875 0 
L 28.46875 56 
Q 25.296875 52.984375 20.140625 49.953125 
Q 14.984375 46.921875 10.890625 45.40625 
L 10.890625 53.90625 
Q 18.265625 57.375 23.78125 62.296875 
Q 29.296875 67.234375 31.59375 71.875 
L 37.25 71.875 
z
" id="ArialMT-31"/>
       <path d="M 4.15625 35.296875 
Q 4.15625 48 6.765625 55.734375 
Q 9.375 63.484375 14.515625 67.671875 
Q 19.671875 71.875 27.484375 71.875 
Q 33.25 71.875 37.59375 69.546875 
Q 41.9375 67.234375 44.765625 62.859375 
Q 47.609375 58.5 49.21875 52.21875 
Q 50.828125 45.953125 50.828125 35.296875 
Q 50.828125 22.703125 48.234375 14.96875 
Q 45.65625 7.234375 40.5 3 
Q 35.359375 -1.21875 27.484375 -1.21875 
Q 17.140625 -1.21875 11.234375 6.203125 
Q 4.15625 15.140625 4.15625 35.296875 
M 13.1875 35.296875 
Q 13.1875 17.671875 17.3125 11.828125 
Q 21.4375 6 27.484375 6 
Q 33.546875 6 37.671875 11.859375 
Q 41.796875 17.71875 41.796875 35.296875 
Q 41.796875 52.984375 37.671875 58.78125 
Q 33.546875 64.59375 27.390625 64.59375 
Q 21.34375 64.59375 17.71875 59.46875 
Q 13.1875 52.9375 13.1875 35.296875 
" id="ArialMT-30"/>
       <path d="M 50.34375 8.453125 
L 50.34375 0 
L 3.03125 0 
Q 2.9375 3.171875 4.046875 6.109375 
Q 5.859375 10.9375 9.828125 15.625 
Q 13.8125 20.3125 21.34375 26.46875 
Q 33.015625 36.03125 37.109375 41.625 
Q 41.21875 47.21875 41.21875 52.203125 
Q 41.21875 57.421875 37.46875 61 
Q 33.734375 64.59375 27.734375 64.59375 
Q 21.390625 64.59375 17.578125 60.78125 
Q 13.765625 56.984375 13.71875 50.25 
L 4.6875 51.171875 
Q 5.609375 61.28125 11.65625 66.578125 
Q 17.71875 71.875 27.9375 71.875 
Q 38.234375 71.875 44.234375 66.15625 
Q 50.25 60.453125 50.25 52 
Q 50.25 47.703125 48.484375 43.546875 
Q 46.734375 39.40625 42.65625 34.8125 
Q 38.578125 30.21875 29.109375 22.21875 
Q 21.1875 15.578125 18.9375 13.203125 
Q 16.703125 10.84375 15.234375 8.453125 
z
" id="ArialMT-32"/>
       <path d="M 32.328125 0 
L 32.328125 17.140625 
L 1.265625 17.140625 
L 1.265625 25.203125 
L 33.9375 71.578125 
L 41.109375 71.578125 
L 41.109375 25.203125 
L 50.78125 25.203125 
L 50.78125 17.140625 
L 41.109375 17.140625 
L 41.109375 0 
z
M 32.328125 25.203125 
L 32.328125 57.46875 
L 9.90625 25.203125 
z
" id="ArialMT-34"/>
      </defs>
      <g style="fill:#262626;" transform="translate(119.198125 518.157812)scale(0.1 -0.1)">
       <use xlink:href="#ArialMT-31"/>
       <use x="55.615234" xlink:href="#ArialMT-30"/>
       <use x="111.230469" xlink:href="#ArialMT-32"/>
       <use x="166.845703" xlink:href="#ArialMT-34"/>
      </g>
     </g>
    </g>
    <g id="xtick_2">
     <g id="line2d_2"/>
     <g id="text_2">
      <!-- 2k -->
      <defs>
       <path d="M 6.640625 0 
L 6.640625 71.578125 
L 15.4375 71.578125 
L 15.4375 30.765625 
L 36.234375 51.859375 
L 47.609375 51.859375 
L 27.78125 32.625 
L 49.609375 0 
L 38.765625 0 
L 21.625 26.515625 
L 15.4375 20.5625 
L 15.4375 0 
z
" id="ArialMT-6b"/>
      </defs>
      <g style="fill:#262626;" transform="translate(169.679531 518.157812)scale(0.1 -0.1)">
       <use xlink:href="#ArialMT-32"/>
       <use x="55.615234" xlink:href="#ArialMT-6b"/>
      </g>
     </g>
    </g>
    <g id="xtick_3">
     <g id="line2d_3"/>
     <g id="text_3">
      <!-- 4k -->
      <g style="fill:#262626;" transform="translate(214.319531 518.157812)scale(0.1 -0.1)">
       <use xlink:href="#ArialMT-34"/>
       <use x="55.615234" xlink:href="#ArialMT-6b"/>
      </g>
     </g>
    </g>
    <g id="xtick_4">
     <g id="line2d_4"/>
     <g id="text_4">
      <!-- 8k -->
      <defs>
       <path d="M 17.671875 38.8125 
Q 12.203125 40.828125 9.5625 44.53125 
Q 6.9375 48.25 6.9375 53.421875 
Q 6.9375 61.234375 12.546875 66.546875 
Q 18.171875 71.875 27.484375 71.875 
Q 36.859375 71.875 42.578125 66.421875 
Q 48.296875 60.984375 48.296875 53.171875 
Q 48.296875 48.1875 45.671875 44.5 
Q 43.0625 40.828125 37.75 38.8125 
Q 44.34375 36.671875 47.78125 31.875 
Q 51.21875 27.09375 51.21875 20.453125 
Q 51.21875 11.28125 44.71875 5.03125 
Q 38.234375 -1.21875 27.640625 -1.21875 
Q 17.046875 -1.21875 10.546875 5.046875 
Q 4.046875 11.328125 4.046875 20.703125 
Q 4.046875 27.6875 7.59375 32.390625 
Q 11.140625 37.109375 17.671875 38.8125 
M 15.921875 53.71875 
Q 15.921875 48.640625 19.1875 45.40625 
Q 22.46875 42.1875 27.6875 42.1875 
Q 32.765625 42.1875 36.015625 45.375 
Q 39.265625 48.578125 39.265625 53.21875 
Q 39.265625 58.0625 35.90625 61.359375 
Q 32.5625 64.65625 27.59375 64.65625 
Q 22.5625 64.65625 19.234375 61.421875 
Q 15.921875 58.203125 15.921875 53.71875 
M 13.09375 20.65625 
Q 13.09375 16.890625 14.875 13.375 
Q 16.65625 9.859375 20.171875 7.921875 
Q 23.6875 6 27.734375 6 
Q 34.03125 6 38.125 10.046875 
Q 42.234375 14.109375 42.234375 20.359375 
Q 42.234375 26.703125 38.015625 30.859375 
Q 33.796875 35.015625 27.4375 35.015625 
Q 21.234375 35.015625 17.15625 30.90625 
Q 13.09375 26.8125 13.09375 20.65625 
" id="ArialMT-38"/>
      </defs>
      <g style="fill:#262626;" transform="translate(258.959531 518.157812)scale(0.1 -0.1)">
       <use xlink:href="#ArialMT-38"/>
       <use x="55.615234" xlink:href="#ArialMT-6b"/>
      </g>
     </g>
    </g>
    <g id="xtick_5">
     <g id="line2d_5"/>
     <g id="text_5">
      <!-- 16k -->
      <defs>
       <path d="M 49.75 54.046875 
L 41.015625 53.375 
Q 39.84375 58.546875 37.703125 60.890625 
Q 34.125 64.65625 28.90625 64.65625 
Q 24.703125 64.65625 21.53125 62.3125 
Q 17.390625 59.28125 14.984375 53.46875 
Q 12.59375 47.65625 12.5 36.921875 
Q 15.671875 41.75 20.265625 44.09375 
Q 24.859375 46.4375 29.890625 46.4375 
Q 38.671875 46.4375 44.84375 39.96875 
Q 51.03125 33.5 51.03125 23.25 
Q 51.03125 16.5 48.125 10.71875 
Q 45.21875 4.9375 40.140625 1.859375 
Q 35.0625 -1.21875 28.609375 -1.21875 
Q 17.625 -1.21875 10.6875 6.859375 
Q 3.765625 14.9375 3.765625 33.5 
Q 3.765625 54.25 11.421875 63.671875 
Q 18.109375 71.875 29.4375 71.875 
Q 37.890625 71.875 43.28125 67.140625 
Q 48.6875 62.40625 49.75 54.046875 
M 13.875 23.1875 
Q 13.875 18.65625 15.796875 14.5 
Q 17.71875 10.359375 21.1875 8.171875 
Q 24.65625 6 28.46875 6 
Q 34.03125 6 38.03125 10.484375 
Q 42.046875 14.984375 42.046875 22.703125 
Q 42.046875 30.125 38.078125 34.390625 
Q 34.125 38.671875 28.125 38.671875 
Q 22.171875 38.671875 18.015625 34.390625 
Q 13.875 30.125 13.875 23.1875 
" id="ArialMT-36"/>
      </defs>
      <g style="fill:#262626;" transform="translate(300.819062 518.157812)scale(0.1 -0.1)">
       <use xlink:href="#ArialMT-31"/>
       <use x="55.615234" xlink:href="#ArialMT-36"/>
       <use x="111.230469" xlink:href="#ArialMT-6b"/>
      </g>
     </g>
    </g>
    <g id="xtick_6">
     <g id="line2d_6"/>
     <g id="text_6">
      <!-- 32k -->
      <defs>
       <path d="M 4.203125 18.890625 
L 12.984375 20.0625 
Q 14.5 12.59375 18.140625 9.296875 
Q 21.78125 6 27 6 
Q 33.203125 6 37.46875 10.296875 
Q 41.75 14.59375 41.75 20.953125 
Q 41.75 27 37.796875 30.921875 
Q 33.84375 34.859375 27.734375 34.859375 
Q 25.25 34.859375 21.53125 33.890625 
L 22.515625 41.609375 
Q 23.390625 41.5 23.921875 41.5 
Q 29.546875 41.5 34.03125 44.421875 
Q 38.53125 47.359375 38.53125 53.46875 
Q 38.53125 58.296875 35.25 61.46875 
Q 31.984375 64.65625 26.8125 64.65625 
Q 21.6875 64.65625 18.265625 61.421875 
Q 14.84375 58.203125 13.875 51.765625 
L 5.078125 53.328125 
Q 6.6875 62.15625 12.390625 67.015625 
Q 18.109375 71.875 26.609375 71.875 
Q 32.46875 71.875 37.390625 69.359375 
Q 42.328125 66.84375 44.9375 62.5 
Q 47.5625 58.15625 47.5625 53.265625 
Q 47.5625 48.640625 45.0625 44.828125 
Q 42.578125 41.015625 37.703125 38.765625 
Q 44.046875 37.3125 47.5625 32.6875 
Q 51.078125 28.078125 51.078125 21.140625 
Q 51.078125 11.765625 44.234375 5.25 
Q 37.40625 -1.265625 26.953125 -1.265625 
Q 17.53125 -1.265625 11.296875 4.34375 
Q 5.078125 9.96875 4.203125 18.890625 
" id="ArialMT-33"/>
      </defs>
      <g style="fill:#262626;" transform="translate(345.459062 518.157812)scale(0.1 -0.1)">
       <use xlink:href="#ArialMT-33"/>
       <use x="55.615234" xlink:href="#ArialMT-32"/>
       <use x="111.230469" xlink:href="#ArialMT-6b"/>
      </g>
     </g>
    </g>
    <g id="xtick_7">
     <g id="line2d_7"/>
     <g id="text_7">
      <!-- 64k -->
      <g style="fill:#262626;" transform="translate(390.099063 518.157812)scale(0.1 -0.1)">
       <use xlink:href="#ArialMT-36"/>
       <use x="55.615234" xlink:href="#ArialMT-34"/>
       <use x="111.230469" xlink:href="#ArialMT-6b"/>
      </g>
     </g>
    </g>
    <g id="xtick_8">
     <g id="line2d_8"/>
     <g id="text_8">
      <!-- 128k -->
      <g style="fill:#262626;" transform="translate(431.958594 518.157812)scale(0.1 -0.1)">
       <use xlink:href="#ArialMT-31"/>
       <use x="55.615234" xlink:href="#ArialMT-32"/>
       <use x="111.230469" xlink:href="#ArialMT-38"/>
       <use x="166.845703" xlink:href="#ArialMT-6b"/>
      </g>
     </g>
    </g>
    <g id="xtick_9">
     <g id="line2d_9"/>
     <g id="text_9">
      <!-- 256k -->
      <defs>
       <path d="M 4.15625 18.75 
L 13.375 19.53125 
Q 14.40625 12.796875 18.140625 9.390625 
Q 21.875 6 27.15625 6 
Q 33.5 6 37.890625 10.78125 
Q 42.28125 15.578125 42.28125 23.484375 
Q 42.28125 31 38.0625 35.34375 
Q 33.84375 39.703125 27 39.703125 
Q 22.75 39.703125 19.328125 37.765625 
Q 15.921875 35.84375 13.96875 32.765625 
L 5.71875 33.84375 
L 12.640625 70.609375 
L 48.25 70.609375 
L 48.25 62.203125 
L 19.671875 62.203125 
L 15.828125 42.96875 
Q 22.265625 47.46875 29.34375 47.46875 
Q 38.71875 47.46875 45.15625 40.96875 
Q 51.609375 34.46875 51.609375 24.265625 
Q 51.609375 14.546875 45.953125 7.46875 
Q 39.0625 -1.21875 27.15625 -1.21875 
Q 17.390625 -1.21875 11.203125 4.25 
Q 5.03125 9.71875 4.15625 18.75 
" id="ArialMT-35"/>
      </defs>
      <g style="fill:#262626;" transform="translate(476.598594 518.157812)scale(0.1 -0.1)">
       <use xlink:href="#ArialMT-32"/>
       <use x="55.615234" xlink:href="#ArialMT-35"/>
       <use x="111.230469" xlink:href="#ArialMT-36"/>
       <use x="166.845703" xlink:href="#ArialMT-6b"/>
      </g>
     </g>
    </g>
    <g id="xtick_10">
     <g id="line2d_10"/>
     <g id="text_10">
      <!-- 512k -->
      <g style="fill:#262626;" transform="translate(521.238594 518.157812)scale(0.1 -0.1)">
       <use xlink:href="#ArialMT-35"/>
       <use x="55.615234" xlink:href="#ArialMT-31"/>
       <use x="111.230469" xlink:href="#ArialMT-32"/>
       <use x="166.845703" xlink:href="#ArialMT-6b"/>
      </g>
     </g>
    </g>
    <g id="xtick_11">
     <g id="line2d_11"/>
     <g id="text_11">
      <!-- 1024k -->
      <g style="fill:#262626;" transform="translate(563.098125 518.157812)scale(0.1 -0.1)">
       <use xlink:href="#ArialMT-31"/>
       <use x="55.615234" xlink:href="#ArialMT-30"/>
       <use x="111.230469" xlink:href="#ArialMT-32"/>
       <use x="166.845703" xlink:href="#ArialMT-34"/>
       <use x="222.460938" xlink:href="#ArialMT-6b"/>
      </g>
     </g>
    </g>
    <g id="xtick_12">
     <g id="line2d_12"/>
     <g id="text_12">
      <!-- 2M -->
      <defs>
       <path d="M 7.421875 0 
L 7.421875 71.578125 
L 21.6875 71.578125 
L 38.625 20.90625 
Q 40.96875 13.8125 42.046875 10.296875 
Q 43.265625 14.203125 45.84375 21.78125 
L 62.984375 71.578125 
L 75.734375 71.578125 
L 75.734375 0 
L 66.609375 0 
L 66.609375 59.90625 
L 45.796875 0 
L 37.25 0 
L 16.546875 60.9375 
L 16.546875 0 
z
" id="ArialMT-4d"/>
      </defs>
      <g style="fill:#262626;" transform="translate(614.414688 518.157812)scale(0.1 -0.1)">
       <use xlink:href="#ArialMT-32"/>
       <use x="55.615234" xlink:href="#ArialMT-4d"/>
      </g>
     </g>
    </g>
    <g id="xtick_13">
     <g id="line2d_13"/>
     <g id="text_13">
      <!-- 4M -->
      <g style="fill:#262626;" transform="translate(659.054688 518.157812)scale(0.1 -0.1)">
       <use xlink:href="#ArialMT-34"/>
       <use x="55.615234" xlink:href="#ArialMT-4d"/>
      </g>
     </g>
    </g>
    <g id="xtick_14">
     <g id="line2d_14"/>
     <g id="text_14">
      <!-- 8M -->
      <g style="fill:#262626;" transform="translate(703.694688 518.157812)scale(0.1 -0.1)">
       <use xlink:href="#ArialMT-38"/>
       <use x="55.615234" xlink:href="#ArialMT-4d"/>
      </g>
     </g>
    </g>
    <g id="xtick_15">
     <g id="line2d_15"/>
     <g id="text_15">
      <!-- 16M -->
      <g style="fill:#262626;" transform="translate(745.554219 518.157812)scale(0.1 -0.1)">
       <use xlink:href="#ArialMT-31"/>
       <use x="55.615234" xlink:href="#ArialMT-36"/>
       <use x="111.230469" xlink:href="#ArialMT-4d"/>
      </g>
     </g>
    </g>
    <g id="text_16">
     <!-- Blob size (bytes) -->
     <defs>
      <path d="M 7.328125 0 
L 7.328125 71.578125 
L 34.1875 71.578125 
Q 42.390625 71.578125 47.34375 69.40625 
Q 52.296875 67.234375 55.09375 62.71875 
Q 57.90625 58.203125 57.90625 53.265625 
Q 57.90625 48.6875 55.421875 44.625 
Q 52.9375 40.578125 47.90625 38.09375 
Q 54.390625 36.1875 57.875 31.59375 
Q 61.375 27 61.375 20.75 
Q 61.375 15.71875 59.25 11.390625 
Q 57.125 7.078125 54 4.734375 
Q 50.875 2.390625 46.15625 1.1875 
Q 41.453125 0 34.625 0 
z
M 16.796875 41.5 
L 32.28125 41.5 
Q 38.578125 41.5 41.3125 42.328125 
Q 44.921875 43.40625 46.75 45.890625 
Q 48.578125 48.390625 48.578125 52.15625 
Q 48.578125 55.71875 46.875 58.421875 
Q 45.171875 61.140625 41.984375 62.140625 
Q 38.8125 63.140625 31.109375 63.140625 
L 16.796875 63.140625 
z
M 16.796875 8.453125 
L 34.625 8.453125 
Q 39.203125 8.453125 41.0625 8.796875 
Q 44.34375 9.375 46.53125 10.734375 
Q 48.734375 12.109375 50.140625 14.71875 
Q 51.5625 17.328125 51.5625 20.75 
Q 51.5625 24.75 49.515625 27.703125 
Q 47.46875 30.671875 43.828125 31.859375 
Q 40.1875 33.0625 33.34375 33.0625 
L 16.796875 33.0625 
z
" id="ArialMT-42"/>
      <path d="M 6.390625 0 
L 6.390625 71.578125 
L 15.1875 71.578125 
L 15.1875 0 
z
" id="ArialMT-6c"/>
      <path d="M 3.328125 25.921875 
Q 3.328125 40.328125 11.328125 47.265625 
Q 18.015625 53.03125 27.640625 53.03125 
Q 38.328125 53.03125 45.109375 46.015625 
Q 51.90625 39.015625 51.90625 26.65625 
Q 51.90625 16.65625 48.90625 10.90625 
Q 45.90625 5.171875 40.15625 2 
Q 34.421875 -1.171875 27.640625 -1.171875 
Q 16.75 -1.171875 10.03125 5.8125 
Q 3.328125 12.796875 3.328125 25.921875 
M 12.359375 25.921875 
Q 12.359375 15.96875 16.703125 11.015625 
Q 21.046875 6.0625 27.640625 6.0625 
Q 34.1875 6.0625 38.53125 11.03125 
Q 42.875 16.015625 42.875 26.21875 
Q 42.875 35.84375 38.5 40.796875 
Q 34.125 45.75 27.640625 45.75 
Q 21.046875 45.75 16.703125 40.8125 
Q 12.359375 35.890625 12.359375 25.921875 
" id="ArialMT-6f"/>
      <path d="M 14.703125 0 
L 6.546875 0 
L 6.546875 71.578125 
L 15.328125 71.578125 
L 15.328125 46.046875 
Q 20.90625 53.03125 29.546875 53.03125 
Q 34.328125 53.03125 38.59375 51.09375 
Q 42.875 49.171875 45.625 45.671875 
Q 48.390625 42.1875 49.953125 37.25 
Q 51.515625 32.328125 51.515625 26.703125 
Q 51.515625 13.375 44.921875 6.09375 
Q 38.328125 -1.171875 29.109375 -1.171875 
Q 19.921875 -1.171875 14.703125 6.5 
z
M 14.59375 26.3125 
Q 14.59375 17 17.140625 12.84375 
Q 21.296875 6.0625 28.375 6.0625 
Q 34.125 6.0625 38.328125 11.0625 
Q 42.53125 16.0625 42.53125 25.984375 
Q 42.53125 36.140625 38.5 40.96875 
Q 34.46875 45.796875 28.765625 45.796875 
Q 23 45.796875 18.796875 40.796875 
Q 14.59375 35.796875 14.59375 26.3125 
" id="ArialMT-62"/>
      <path id="ArialMT-20"/>
      <path d="M 3.078125 15.484375 
L 11.765625 16.84375 
Q 12.5 11.625 15.84375 8.84375 
Q 19.1875 6.0625 25.203125 6.0625 
Q 31.25 6.0625 34.171875 8.515625 
Q 37.109375 10.984375 37.109375 14.3125 
Q 37.109375 17.28125 34.515625 19 
Q 32.71875 20.171875 25.53125 21.96875 
Q 15.875 24.421875 12.140625 26.203125 
Q 8.40625 27.984375 6.46875 31.125 
Q 4.546875 34.28125 4.546875 38.09375 
Q 4.546875 41.546875 6.125 44.5 
Q 7.71875 47.46875 10.453125 49.421875 
Q 12.5 50.921875 16.03125 51.96875 
Q 19.578125 53.03125 23.640625 53.03125 
Q 29.734375 53.03125 34.34375 51.265625 
Q 38.96875 49.515625 41.15625 46.5 
Q 43.359375 43.5 44.1875 38.484375 
L 35.59375 37.3125 
Q 35.015625 41.3125 32.203125 43.546875 
Q 29.390625 45.796875 24.265625 45.796875 
Q 18.21875 45.796875 15.625 43.796875 
Q 13.03125 41.796875 13.03125 39.109375 
Q 13.03125 37.40625 14.109375 36.03125 
Q 15.1875 34.625 17.484375 33.6875 
Q 18.796875 33.203125 25.25 31.453125 
Q 34.578125 28.953125 38.25 27.359375 
Q 41.9375 25.78125 44.03125 22.75 
Q 46.140625 19.734375 46.140625 15.234375 
Q 46.140625 10.84375 43.578125 6.953125 
Q 41.015625 3.078125 36.171875 0.953125 
Q 31.34375 -1.171875 25.25 -1.171875 
Q 15.140625 -1.171875 9.84375 3.03125 
Q 4.546875 7.234375 3.078125 15.484375 
" id="ArialMT-73"/>
      <path d="M 6.640625 61.46875 
L 6.640625 71.578125 
L 15.4375 71.578125 
L 15.4375 61.46875 
z
M 6.640625 0 
L 6.640625 51.859375 
L 15.4375 51.859375 
L 15.4375 0 
z
" id="ArialMT-69"/>
      <path d="M 1.953125 0 
L 1.953125 7.125 
L 34.96875 45.015625 
Q 29.34375 44.734375 25.046875 44.734375 
L 3.90625 44.734375 
L 3.90625 51.859375 
L 46.296875 51.859375 
L 46.296875 46.046875 
L 18.21875 13.140625 
L 12.796875 7.125 
Q 18.703125 7.5625 23.875 7.5625 
L 47.859375 7.5625 
L 47.859375 0 
z
" id="ArialMT-7a"/>
      <path d="M 42.09375 16.703125 
L 51.171875 15.578125 
Q 49.03125 7.625 43.21875 3.21875 
Q 37.40625 -1.171875 28.375 -1.171875 
Q 17 -1.171875 10.328125 5.828125 
Q 3.65625 12.84375 3.65625 25.484375 
Q 3.65625 38.578125 10.390625 45.796875 
Q 17.140625 53.03125 27.875 53.03125 
Q 38.28125 53.03125 44.875 45.953125 
Q 51.46875 38.875 51.46875 26.03125 
Q 51.46875 25.25 51.421875 23.6875 
L 12.75 23.6875 
Q 13.234375 15.140625 17.578125 10.59375 
Q 21.921875 6.0625 28.421875 6.0625 
Q 33.25 6.0625 36.671875 8.59375 
Q 40.09375 11.140625 42.09375 16.703125 
M 13.234375 30.90625 
L 42.1875 30.90625 
Q 41.609375 37.453125 38.875 40.71875 
Q 34.671875 45.796875 27.984375 45.796875 
Q 21.921875 45.796875 17.796875 41.75 
Q 13.671875 37.703125 13.234375 30.90625 
" id="ArialMT-65"/>
      <path d="M 23.390625 -21.046875 
Q 16.109375 -11.859375 11.078125 0.4375 
Q 6.0625 12.75 6.0625 25.921875 
Q 6.0625 37.546875 9.8125 48.1875 
Q 14.203125 60.546875 23.390625 72.796875 
L 29.6875 72.796875 
Q 23.78125 62.640625 21.875 58.296875 
Q 18.890625 51.5625 17.1875 44.234375 
Q 15.09375 35.109375 15.09375 25.875 
Q 15.09375 2.390625 29.6875 -21.046875 
z
" id="ArialMT-28"/>
      <path d="M 6.203125 -19.96875 
L 5.21875 -11.71875 
Q 8.109375 -12.5 10.25 -12.5 
Q 13.1875 -12.5 14.9375 -11.515625 
Q 16.703125 -10.546875 17.828125 -8.796875 
Q 18.65625 -7.46875 20.515625 -2.25 
Q 20.75 -1.515625 21.296875 -0.09375 
L 1.609375 51.859375 
L 11.078125 51.859375 
L 21.875 21.828125 
Q 23.96875 16.109375 25.640625 9.8125 
Q 27.15625 15.875 29.25 21.625 
L 40.328125 51.859375 
L 49.125 51.859375 
L 29.390625 -0.875 
Q 26.21875 -9.421875 24.46875 -12.640625 
Q 22.125 -17 19.09375 -19.015625 
Q 16.0625 -21.046875 11.859375 -21.046875 
Q 9.328125 -21.046875 6.203125 -19.96875 
" id="ArialMT-79"/>
      <path d="M 25.78125 7.859375 
L 27.046875 0.09375 
Q 23.34375 -0.6875 20.40625 -0.6875 
Q 15.625 -0.6875 12.984375 0.828125 
Q 10.359375 2.34375 9.28125 4.8125 
Q 8.203125 7.28125 8.203125 15.1875 
L 8.203125 45.015625 
L 1.765625 45.015625 
L 1.765625 51.859375 
L 8.203125 51.859375 
L 8.203125 64.703125 
L 16.9375 69.96875 
L 16.9375 51.859375 
L 25.78125 51.859375 
L 25.78125 45.015625 
L 16.9375 45.015625 
L 16.9375 14.703125 
Q 16.9375 10.9375 17.40625 9.859375 
Q 17.875 8.796875 18.921875 8.15625 
Q 19.96875 7.515625 21.921875 7.515625 
Q 23.390625 7.515625 25.78125 7.859375 
" id="ArialMT-74"/>
      <path d="M 12.359375 -21.046875 
L 6.0625 -21.046875 
Q 20.65625 2.390625 20.65625 25.875 
Q 20.65625 35.0625 18.5625 44.09375 
Q 16.890625 51.421875 13.921875 58.15625 
Q 12.015625 62.546875 6.0625 72.796875 
L 12.359375 72.796875 
Q 21.53125 60.546875 25.921875 48.1875 
Q 29.6875 37.546875 29.6875 25.921875 
Q 29.6875 12.75 24.625 0.4375 
Q 19.578125 -11.859375 12.359375 -21.046875 
" id="ArialMT-29"/>
     </defs>
     <g style="fill:#262626;" transform="translate(402.148125 532.152969)scale(0.11 -0.11)">
      <use xlink:href="#ArialMT-42"/>
      <use x="66.699219" xlink:href="#ArialMT-6c"/>
      <use x="88.916016" xlink:href="#ArialMT-6f"/>
      <use x="144.53125" xlink:href="#ArialMT-62"/>
      <use x="200.146484" xlink:href="#ArialMT-20"/>
      <use x="227.929688" xlink:href="#ArialMT-73"/>
      <use x="277.929688" xlink:href="#ArialMT-69"/>
      <use x="300.146484" xlink:href="#ArialMT-7a"/>
      <use x="350.146484" xlink:href="#ArialMT-65"/>
      <use x="405.761719" xlink:href="#ArialMT-20"/>
      <use x="433.544922" xlink:href="#ArialMT-28"/>
      <use x="466.845703" xlink:href="#ArialMT-62"/>
      <use x="522.460938" xlink:href="#ArialMT-79"/>
      <use x="572.460938" xlink:href="#ArialMT-74"/>
      <use x="600.244141" xlink:href="#ArialMT-65"/>
      <use x="655.859375" xlink:href="#ArialMT-73"/>
      <use x="705.859375" xlink:href="#ArialMT-29"/>
     </g>
    </g>
   </g>
   <g id="matplotlib.axis_2">
    <g id="ytick_1">
     <g id="line2d_16">
      <path clip-path="url(#p1cd7d97554)" d="M 108 482.170969 
L 777.6 482.170969 
" style="fill:none;stroke:#ffffff;stroke-linecap:round;"/>
     </g>
     <g id="line2d_17"/>
     <g id="text_17">
      <!-- ${10^{-4}}$ -->
      <defs>
       <path d="M 12.40625 8.296875 
L 28.515625 8.296875 
L 28.515625 63.921875 
L 10.984375 60.40625 
L 10.984375 69.390625 
L 28.421875 72.90625 
L 38.28125 72.90625 
L 38.28125 8.296875 
L 54.390625 8.296875 
L 54.390625 0 
L 12.40625 0 
z
" id="DejaVuSans-31"/>
       <path d="M 31.78125 66.40625 
Q 24.171875 66.40625 20.328125 58.90625 
Q 16.5 51.421875 16.5 36.375 
Q 16.5 21.390625 20.328125 13.890625 
Q 24.171875 6.390625 31.78125 6.390625 
Q 39.453125 6.390625 43.28125 13.890625 
Q 47.125 21.390625 47.125 36.375 
Q 47.125 51.421875 43.28125 58.90625 
Q 39.453125 66.40625 31.78125 66.40625 
M 31.78125 74.21875 
Q 44.046875 74.21875 50.515625 64.515625 
Q 56.984375 54.828125 56.984375 36.375 
Q 56.984375 17.96875 50.515625 8.265625 
Q 44.046875 -1.421875 31.78125 -1.421875 
Q 19.53125 -1.421875 13.0625 8.265625 
Q 6.59375 17.96875 6.59375 36.375 
Q 6.59375 54.828125 13.0625 64.515625 
Q 19.53125 74.21875 31.78125 74.21875 
" id="DejaVuSans-30"/>
       <path d="M 10.59375 35.5 
L 73.1875 35.5 
L 73.1875 27.203125 
L 10.59375 27.203125 
z
" id="DejaVuSans-2212"/>
       <path d="M 37.796875 64.3125 
L 12.890625 25.390625 
L 37.796875 25.390625 
z
M 35.203125 72.90625 
L 47.609375 72.90625 
L 47.609375 25.390625 
L 58.015625 25.390625 
L 58.015625 17.1875 
L 47.609375 17.1875 
L 47.609375 0 
L 37.796875 0 
L 37.796875 17.1875 
L 4.890625 17.1875 
L 4.890625 26.703125 
z
" id="DejaVuSans-34"/>
      </defs>
      <g style="fill:#262626;" transform="translate(77.5 485.777219)scale(0.1 -0.1)">
       <use transform="translate(0 0.684375)" xlink:href="#DejaVuSans-31"/>
       <use transform="translate(63.623047 0.684375)" xlink:href="#DejaVuSans-30"/>
       <use transform="translate(128.203125 38.965625)scale(0.7)" xlink:href="#DejaVuSans-2212"/>
       <use transform="translate(186.855469 38.965625)scale(0.7)" xlink:href="#DejaVuSans-34"/>
      </g>
     </g>
    </g>
    <g id="ytick_2">
     <g id="line2d_18">
      <path clip-path="url(#p1cd7d97554)" d="M 108 405.446237 
L 777.6 405.446237 
" style="fill:none;stroke:#ffffff;stroke-linecap:round;"/>
     </g>
     <g id="line2d_19"/>
     <g id="text_18">
      <!-- ${10^{-3}}$ -->
      <defs>
       <path d="M 40.578125 39.3125 
Q 47.65625 37.796875 51.625 33 
Q 55.609375 28.21875 55.609375 21.1875 
Q 55.609375 10.40625 48.1875 4.484375 
Q 40.765625 -1.421875 27.09375 -1.421875 
Q 22.515625 -1.421875 17.65625 -0.515625 
Q 12.796875 0.390625 7.625 2.203125 
L 7.625 11.71875 
Q 11.71875 9.328125 16.59375 8.109375 
Q 21.484375 6.890625 26.8125 6.890625 
Q 36.078125 6.890625 40.9375 10.546875 
Q 45.796875 14.203125 45.796875 21.1875 
Q 45.796875 27.640625 41.28125 31.265625 
Q 36.765625 34.90625 28.71875 34.90625 
L 20.21875 34.90625 
L 20.21875 43.015625 
L 29.109375 43.015625 
Q 36.375 43.015625 40.234375 45.921875 
Q 44.09375 48.828125 44.09375 54.296875 
Q 44.09375 59.90625 40.109375 62.90625 
Q 36.140625 65.921875 28.71875 65.921875 
Q 24.65625 65.921875 20.015625 65.03125 
Q 15.375 64.15625 9.8125 62.3125 
L 9.8125 71.09375 
Q 15.4375 72.65625 20.34375 73.4375 
Q 25.25 74.21875 29.59375 74.21875 
Q 40.828125 74.21875 47.359375 69.109375 
Q 53.90625 64.015625 53.90625 55.328125 
Q 53.90625 49.265625 50.4375 45.09375 
Q 46.96875 40.921875 40.578125 39.3125 
" id="DejaVuSans-33"/>
      </defs>
      <g style="fill:#262626;" transform="translate(77.5 409.102487)scale(0.1 -0.1)">
       <use transform="translate(0 0.765625)" xlink:href="#DejaVuSans-31"/>
       <use transform="translate(63.623047 0.765625)" xlink:href="#DejaVuSans-30"/>
       <use transform="translate(128.203125 39.046875)scale(0.7)" xlink:href="#DejaVuSans-2212"/>
       <use transform="translate(186.855469 39.046875)scale(0.7)" xlink:href="#DejaVuSans-33"/>
      </g>
     </g>
    </g>
    <g id="ytick_3">
     <g id="line2d_20">
      <path clip-path="url(#p1cd7d97554)" d="M 108 328.721505 
L 777.6 328.721505 
" style="fill:none;stroke:#ffffff;stroke-linecap:round;"/>
     </g>
     <g id="line2d_21"/>
     <g id="text_19">
      <!-- ${10^{-2}}$ -->
      <defs>
       <path d="M 19.1875 8.296875 
L 53.609375 8.296875 
L 53.609375 0 
L 7.328125 0 
L 7.328125 8.296875 
Q 12.9375 14.109375 22.625 23.890625 
Q 32.328125 33.6875 34.8125 36.53125 
Q 39.546875 41.84375 41.421875 45.53125 
Q 43.3125 49.21875 43.3125 52.78125 
Q 43.3125 58.59375 39.234375 62.25 
Q 35.15625 65.921875 28.609375 65.921875 
Q 23.96875 65.921875 18.8125 64.3125 
Q 13.671875 62.703125 7.8125 59.421875 
L 7.8125 69.390625 
Q 13.765625 71.78125 18.9375 73 
Q 24.125 74.21875 28.421875 74.21875 
Q 39.75 74.21875 46.484375 68.546875 
Q 53.21875 62.890625 53.21875 53.421875 
Q 53.21875 48.921875 51.53125 44.890625 
Q 49.859375 40.875 45.40625 35.40625 
Q 44.1875 33.984375 37.640625 27.21875 
Q 31.109375 20.453125 19.1875 8.296875 
" id="DejaVuSans-32"/>
      </defs>
      <g style="fill:#262626;" transform="translate(77.5 332.377755)scale(0.1 -0.1)">
       <use transform="translate(0 0.765625)" xlink:href="#DejaVuSans-31"/>
       <use transform="translate(63.623047 0.765625)" xlink:href="#DejaVuSans-30"/>
       <use transform="translate(128.203125 39.046875)scale(0.7)" xlink:href="#DejaVuSans-2212"/>
       <use transform="translate(186.855469 39.046875)scale(0.7)" xlink:href="#DejaVuSans-32"/>
      </g>
     </g>
    </g>
    <g id="ytick_4">
     <g id="line2d_22">
      <path clip-path="url(#p1cd7d97554)" d="M 108 251.996773 
L 777.6 251.996773 
" style="fill:none;stroke:#ffffff;stroke-linecap:round;"/>
     </g>
     <g id="line2d_23"/>
     <g id="text_20">
      <!-- ${10^{-1}}$ -->
      <g style="fill:#262626;" transform="translate(77.5 255.603023)scale(0.1 -0.1)">
       <use transform="translate(0 0.684375)" xlink:href="#DejaVuSans-31"/>
       <use transform="translate(63.623047 0.684375)" xlink:href="#DejaVuSans-30"/>
       <use transform="translate(128.203125 38.965625)scale(0.7)" xlink:href="#DejaVuSans-2212"/>
       <use transform="translate(186.855469 38.965625)scale(0.7)" xlink:href="#DejaVuSans-31"/>
      </g>
     </g>
    </g>
    <g id="ytick_5">
     <g id="line2d_24">
      <path clip-path="url(#p1cd7d97554)" d="M 108 175.27204 
L 777.6 175.27204 
" style="fill:none;stroke:#ffffff;stroke-linecap:round;"/>
     </g>
     <g id="line2d_25"/>
     <g id="text_21">
      <!-- ${10^{0}}$ -->
      <g style="fill:#262626;" transform="translate(83.4 178.92829)scale(0.1 -0.1)">
       <use transform="translate(0 0.765625)" xlink:href="#DejaVuSans-31"/>
       <use transform="translate(63.623047 0.765625)" xlink:href="#DejaVuSans-30"/>
       <use transform="translate(128.203125 39.046875)scale(0.7)" xlink:href="#DejaVuSans-30"/>
      </g>
     </g>
    </g>
    <g id="ytick_6">
     <g id="line2d_26">
      <path clip-path="url(#p1cd7d97554)" d="M 108 98.547308 
L 777.6 98.547308 
" style="fill:none;stroke:#ffffff;stroke-linecap:round;"/>
     </g>
     <g id="line2d_27"/>
     <g id="text_22">
      <!-- ${10^{1}}$ -->
      <g style="fill:#262626;" transform="translate(83.4 102.153558)scale(0.1 -0.1)">
       <use transform="translate(0 0.684375)" xlink:href="#DejaVuSans-31"/>
       <use transform="translate(63.623047 0.684375)" xlink:href="#DejaVuSans-30"/>
       <use transform="translate(128.203125 38.965625)scale(0.7)" xlink:href="#DejaVuSans-31"/>
      </g>
     </g>
    </g>
    <g id="ytick_7">
     <g id="line2d_28"/>
    </g>
    <g id="ytick_8">
     <g id="line2d_29"/>
    </g>
    <g id="ytick_9">
     <g id="line2d_30"/>
    </g>
    <g id="ytick_10">
     <g id="line2d_31"/>
    </g>
    <g id="ytick_11">
     <g id="line2d_32"/>
    </g>
    <g id="ytick_12">
     <g id="line2d_33"/>
    </g>
    <g id="ytick_13">
     <g id="line2d_34"/>
    </g>
    <g id="ytick_14">
     <g id="line2d_35"/>
    </g>
    <g id="ytick_15">
     <g id="line2d_36"/>
    </g>
    <g id="ytick_16">
     <g id="line2d_37"/>
    </g>
    <g id="ytick_17">
     <g id="line2d_38"/>
    </g>
    <g id="ytick_18">
     <g id="line2d_39"/>
    </g>
    <g id="ytick_19">
     <g id="line2d_40"/>
    </g>
    <g id="ytick_20">
     <g id="line2d_41"/>
    </g>
    <g id="ytick_21">
     <g id="line2d_42"/>
    </g>
    <g id="ytick_22">
     <g id="line2d_43"/>
    </g>
    <g id="ytick_23">
     <g id="line2d_44"/>
    </g>
    <g id="ytick_24">
     <g id="line2d_45"/>
    </g>
    <g id="ytick_25">
     <g id="line2d_46"/>
    </g>
    <g id="ytick_26">
     <g id="line2d_47"/>
    </g>
    <g id="ytick_27">
     <g id="line2d_48"/>
    </g>
    <g id="ytick_28">
     <g id="line2d_49"/>
    </g>
    <g id="ytick_29">
     <g id="line2d_50"/>
    </g>
    <g id="ytick_30">
     <g id="line2d_51"/>
    </g>
    <g id="ytick_31">
     <g id="line2d_52"/>
    </g>
    <g id="ytick_32">
     <g id="line2d_53"/>
    </g>
    <g id="ytick_33">
     <g id="line2d_54"/>
    </g>
    <g id="ytick_34">
     <g id="line2d_55"/>
    </g>
    <g id="ytick_35">
     <g id="line2d_56"/>
    </g>
    <g id="ytick_36">
     <g id="line2d_57"/>
    </g>
    <g id="ytick_37">
     <g id="line2d_58"/>
    </g>
    <g id="ytick_38">
     <g id="line2d_59"/>
    </g>
    <g id="ytick_39">
     <g id="line2d_60"/>
    </g>
    <g id="ytick_40">
     <g id="line2d_61"/>
    </g>
    <g id="ytick_41">
     <g id="line2d_62"/>
    </g>
    <g id="ytick_42">
     <g id="line2d_63"/>
    </g>
    <g id="ytick_43">
     <g id="line2d_64"/>
    </g>
    <g id="ytick_44">
     <g id="line2d_65"/>
    </g>
    <g id="ytick_45">
     <g id="line2d_66"/>
    </g>
    <g id="ytick_46">
     <g id="line2d_67"/>
    </g>
    <g id="ytick_47">
     <g id="line2d_68"/>
    </g>
    <g id="ytick_48">
     <g id="line2d_69"/>
    </g>
    <g id="ytick_49">
     <g id="line2d_70"/>
    </g>
    <g id="ytick_50">
     <g id="line2d_71"/>
    </g>
    <g id="ytick_51">
     <g id="line2d_72"/>
    </g>
    <g id="text_23">
     <!-- Iteration time (ms) -->
     <defs>
      <path d="M 9.328125 0 
L 9.328125 71.578125 
L 18.796875 71.578125 
L 18.796875 0 
z
" id="ArialMT-49"/>
      <path d="M 6.5 0 
L 6.5 51.859375 
L 14.40625 51.859375 
L 14.40625 44 
Q 17.4375 49.515625 20 51.265625 
Q 22.5625 53.03125 25.640625 53.03125 
Q 30.078125 53.03125 34.671875 50.203125 
L 31.640625 42.046875 
Q 28.421875 43.953125 25.203125 43.953125 
Q 22.3125 43.953125 20.015625 42.21875 
Q 17.71875 40.484375 16.75 37.40625 
Q 15.28125 32.71875 15.28125 27.15625 
L 15.28125 0 
z
" id="ArialMT-72"/>
      <path d="M 40.4375 6.390625 
Q 35.546875 2.25 31.03125 0.53125 
Q 26.515625 -1.171875 21.34375 -1.171875 
Q 12.796875 -1.171875 8.203125 3 
Q 3.609375 7.171875 3.609375 13.671875 
Q 3.609375 17.484375 5.34375 20.625 
Q 7.078125 23.78125 9.890625 25.6875 
Q 12.703125 27.59375 16.21875 28.5625 
Q 18.796875 29.25 24.03125 29.890625 
Q 34.671875 31.15625 39.703125 32.90625 
Q 39.75 34.71875 39.75 35.203125 
Q 39.75 40.578125 37.25 42.78125 
Q 33.890625 45.75 27.25 45.75 
Q 21.046875 45.75 18.09375 43.578125 
Q 15.140625 41.40625 13.71875 35.890625 
L 5.125 37.0625 
Q 6.296875 42.578125 8.984375 45.96875 
Q 11.671875 49.359375 16.75 51.1875 
Q 21.828125 53.03125 28.515625 53.03125 
Q 35.15625 53.03125 39.296875 51.46875 
Q 43.453125 49.90625 45.40625 47.53125 
Q 47.359375 45.171875 48.140625 41.546875 
Q 48.578125 39.3125 48.578125 33.453125 
L 48.578125 21.734375 
Q 48.578125 9.46875 49.140625 6.21875 
Q 49.703125 2.984375 51.375 0 
L 42.1875 0 
Q 40.828125 2.734375 40.4375 6.390625 
M 39.703125 26.03125 
Q 34.90625 24.078125 25.34375 22.703125 
Q 19.921875 21.921875 17.671875 20.9375 
Q 15.4375 19.96875 14.203125 18.09375 
Q 12.984375 16.21875 12.984375 13.921875 
Q 12.984375 10.40625 15.640625 8.0625 
Q 18.3125 5.71875 23.4375 5.71875 
Q 28.515625 5.71875 32.46875 7.9375 
Q 36.421875 10.15625 38.28125 14.015625 
Q 39.703125 17 39.703125 22.796875 
z
" id="ArialMT-61"/>
      <path d="M 6.59375 0 
L 6.59375 51.859375 
L 14.5 51.859375 
L 14.5 44.484375 
Q 20.21875 53.03125 31 53.03125 
Q 35.6875 53.03125 39.625 51.34375 
Q 43.5625 49.65625 45.515625 46.921875 
Q 47.46875 44.1875 48.25 40.4375 
Q 48.734375 37.984375 48.734375 31.890625 
L 48.734375 0 
L 39.9375 0 
L 39.9375 31.546875 
Q 39.9375 36.921875 38.90625 39.578125 
Q 37.890625 42.234375 35.28125 43.8125 
Q 32.671875 45.40625 29.15625 45.40625 
Q 23.53125 45.40625 19.453125 41.84375 
Q 15.375 38.28125 15.375 28.328125 
L 15.375 0 
z
" id="ArialMT-6e"/>
      <path d="M 6.59375 0 
L 6.59375 51.859375 
L 14.453125 51.859375 
L 14.453125 44.578125 
Q 16.890625 48.390625 20.9375 50.703125 
Q 25 53.03125 30.171875 53.03125 
Q 35.9375 53.03125 39.625 50.640625 
Q 43.3125 48.25 44.828125 43.953125 
Q 50.984375 53.03125 60.84375 53.03125 
Q 68.5625 53.03125 72.703125 48.75 
Q 76.859375 44.484375 76.859375 35.59375 
L 76.859375 0 
L 68.109375 0 
L 68.109375 32.671875 
Q 68.109375 37.9375 67.25 40.25 
Q 66.40625 42.578125 64.15625 43.984375 
Q 61.921875 45.40625 58.890625 45.40625 
Q 53.421875 45.40625 49.796875 41.765625 
Q 46.1875 38.140625 46.1875 30.125 
L 46.1875 0 
L 37.40625 0 
L 37.40625 33.6875 
Q 37.40625 39.546875 35.25 42.46875 
Q 33.109375 45.40625 28.21875 45.40625 
Q 24.515625 45.40625 21.359375 43.453125 
Q 18.21875 41.5 16.796875 37.734375 
Q 15.375 33.984375 15.375 26.90625 
L 15.375 0 
z
" id="ArialMT-6d"/>
     </defs>
     <g style="fill:#262626;" transform="translate(71.184844 330.871094)rotate(-90)scale(0.11 -0.11)">
      <use xlink:href="#ArialMT-49"/>
      <use x="27.783203" xlink:href="#ArialMT-74"/>
      <use x="55.566406" xlink:href="#ArialMT-65"/>
      <use x="111.181641" xlink:href="#ArialMT-72"/>
      <use x="144.482422" xlink:href="#ArialMT-61"/>
      <use x="200.097656" xlink:href="#ArialMT-74"/>
      <use x="227.880859" xlink:href="#ArialMT-69"/>
      <use x="250.097656" xlink:href="#ArialMT-6f"/>
      <use x="305.712891" xlink:href="#ArialMT-6e"/>
      <use x="361.328125" xlink:href="#ArialMT-20"/>
      <use x="389.111328" xlink:href="#ArialMT-74"/>
      <use x="416.894531" xlink:href="#ArialMT-69"/>
      <use x="439.111328" xlink:href="#ArialMT-6d"/>
      <use x="522.412109" xlink:href="#ArialMT-65"/>
      <use x="578.027344" xlink:href="#ArialMT-20"/>
      <use x="605.810547" xlink:href="#ArialMT-28"/>
      <use x="639.111328" xlink:href="#ArialMT-6d"/>
      <use x="722.412109" xlink:href="#ArialMT-73"/>
      <use x="772.412109" xlink:href="#ArialMT-29"/>
     </g>
    </g>
   </g>
   <g id="patch_3">
    <path clip-path="url(#p1cd7d97554)" d="M 112.464 23192.691687 
L 121.392 23192.691687 
L 121.392 284.423299 
L 112.464 284.423299 
z
" style="fill:#df6f8d;"/>
   </g>
   <g id="patch_4">
    <path clip-path="url(#p1cd7d97554)" d="M 157.104 23192.691687 
L 166.032 23192.691687 
L 166.032 284.224613 
L 157.104 284.224613 
z
" style="fill:#df6f8d;"/>
   </g>
   <g id="patch_5">
    <path clip-path="url(#p1cd7d97554)" d="M 201.744 23192.691687 
L 210.672 23192.691687 
L 210.672 283.915759 
L 201.744 283.915759 
z
" style="fill:#df6f8d;"/>
   </g>
   <g id="patch_6">
    <path clip-path="url(#p1cd7d97554)" d="M 246.384 23192.691687 
L 255.312 23192.691687 
L 255.312 279.817955 
L 246.384 279.817955 
z
" style="fill:#df6f8d;"/>
   </g>
   <g id="patch_7">
    <path clip-path="url(#p1cd7d97554)" d="M 291.024 23192.691687 
L 299.952 23192.691687 
L 299.952 278.528507 
L 291.024 278.528507 
z
" style="fill:#df6f8d;"/>
   </g>
   <g id="patch_8">
    <path clip-path="url(#p1cd7d97554)" d="M 335.664 23192.691687 
L 344.592 23192.691687 
L 344.592 275.535986 
L 335.664 275.535986 
z
" style="fill:#df6f8d;"/>
   </g>
   <g id="patch_9">
    <path clip-path="url(#p1cd7d97554)" d="M 380.304 23192.691687 
L 389.232 23192.691687 
L 389.232 268.634307 
L 380.304 268.634307 
z
" style="fill:#df6f8d;"/>
   </g>
   <g id="patch_10">
    <path clip-path="url(#p1cd7d97554)" d="M 424.944 23192.691687 
L 433.872 23192.691687 
L 433.872 260.94286 
L 424.944 260.94286 
z
" style="fill:#df6f8d;"/>
   </g>
   <g id="patch_11">
    <path clip-path="url(#p1cd7d97554)" d="M 469.584 23192.691687 
L 478.512 23192.691687 
L 478.512 249.098038 
L 469.584 249.098038 
z
" style="fill:#df6f8d;"/>
   </g>
   <g id="patch_12">
    <path clip-path="url(#p1cd7d97554)" d="M 514.224 23192.691687 
L 523.152 23192.691687 
L 523.152 220.357293 
L 514.224 220.357293 
z
" style="fill:#df6f8d;"/>
   </g>
   <g id="patch_13">
    <path clip-path="url(#p1cd7d97554)" d="M 558.864 23192.691687 
L 567.792 23192.691687 
L 567.792 190.319849 
L 558.864 190.319849 
z
" style="fill:#df6f8d;"/>
   </g>
   <g id="patch_14">
    <path clip-path="url(#p1cd7d97554)" d="M 603.504 23192.691687 
L 612.432 23192.691687 
L 612.432 160.917966 
L 603.504 160.917966 
z
" style="fill:#df6f8d;"/>
   </g>
   <g id="patch_15">
    <path clip-path="url(#p1cd7d97554)" d="M 648.144 23192.691687 
L 657.072 23192.691687 
L 657.072 134.837163 
L 648.144 134.837163 
z
" style="fill:#df6f8d;"/>
   </g>
   <g id="patch_16">
    <path clip-path="url(#p1cd7d97554)" d="M 692.784 23192.691687 
L 701.712 23192.691687 
L 701.712 119.155564 
L 692.784 119.155564 
z
" style="fill:#df6f8d;"/>
   </g>
   <g id="patch_17">
    <path clip-path="url(#p1cd7d97554)" d="M 737.424 23192.691687 
L 746.352 23192.691687 
L 746.352 88.887273 
L 737.424 88.887273 
z
" style="fill:#df6f8d;"/>
   </g>
   <g id="patch_18">
    <path clip-path="url(#p1cd7d97554)" d="M 121.392 23192.691687 
L 130.32 23192.691687 
L 130.32 484.232727 
L 121.392 484.232727 
z
" style="fill:#54b5db;"/>
   </g>
   <g id="patch_19">
    <path clip-path="url(#p1cd7d97554)" d="M 166.032 23192.691687 
L 174.96 23192.691687 
L 174.96 478.995126 
L 166.032 478.995126 
z
" style="fill:#54b5db;"/>
   </g>
   <g id="patch_20">
    <path clip-path="url(#p1cd7d97554)" d="M 210.672 23192.691687 
L 219.6 23192.691687 
L 219.6 475.545034 
L 210.672 475.545034 
z
" style="fill:#54b5db;"/>
   </g>
   <g id="patch_21">
    <path clip-path="url(#p1cd7d97554)" d="M 255.312 23192.691687 
L 264.24 23192.691687 
L 264.24 453.278203 
L 255.312 453.278203 
z
" style="fill:#54b5db;"/>
   </g>
   <g id="patch_22">
    <path clip-path="url(#p1cd7d97554)" d="M 299.952 23192.691687 
L 308.88 23192.691687 
L 308.88 428.476107 
L 299.952 428.476107 
z
" style="fill:#54b5db;"/>
   </g>
   <g id="patch_23">
    <path clip-path="url(#p1cd7d97554)" d="M 344.592 23192.691687 
L 353.52 23192.691687 
L 353.52 401.878908 
L 344.592 401.878908 
z
" style="fill:#54b5db;"/>
   </g>
   <g id="patch_24">
    <path clip-path="url(#p1cd7d97554)" d="M 389.232 23192.691687 
L 398.16 23192.691687 
L 398.16 380.314033 
L 389.232 380.314033 
z
" style="fill:#54b5db;"/>
   </g>
   <g id="patch_25">
    <path clip-path="url(#p1cd7d97554)" d="M 433.872 23192.691687 
L 442.8 23192.691687 
L 442.8 356.573419 
L 433.872 356.573419 
z
" style="fill:#54b5db;"/>
   </g>
   <g id="patch_26">
    <path clip-path="url(#p1cd7d97554)" d="M 478.512 23192.691687 
L 487.44 23192.691687 
L 487.44 329.462754 
L 478.512 329.462754 
z
" style="fill:#54b5db;"/>
   </g>
   <g id="patch_27">
    <path clip-path="url(#p1cd7d97554)" d="M 523.152 23192.691687 
L 532.08 23192.691687 
L 532.08 303.622231 
L 523.152 303.622231 
z
" style="fill:#54b5db;"/>
   </g>
   <g id="patch_28">
    <path clip-path="url(#p1cd7d97554)" d="M 567.792 23192.691687 
L 576.72 23192.691687 
L 576.72 277.862896 
L 567.792 277.862896 
z
" style="fill:#54b5db;"/>
   </g>
   <g id="patch_29">
    <path clip-path="url(#p1cd7d97554)" d="M 612.432 23192.691687 
L 621.36 23192.691687 
L 621.36 231.74976 
L 612.432 231.74976 
z
" style="fill:#54b5db;"/>
   </g>
   <g id="patch_30">
    <path clip-path="url(#p1cd7d97554)" d="M 657.072 23192.691687 
L 666 23192.691687 
L 666 190.881896 
L 657.072 190.881896 
z
" style="fill:#54b5db;"/>
   </g>
   <g id="patch_31">
    <path clip-path="url(#p1cd7d97554)" d="M 701.712 23192.691687 
L 710.64 23192.691687 
L 710.64 182.943349 
L 701.712 182.943349 
z
" style="fill:#54b5db;"/>
   </g>
   <g id="patch_32">
    <path clip-path="url(#p1cd7d97554)" d="M 746.352 23192.691687 
L 755.28 23192.691687 
L 755.28 159.643452 
L 746.352 159.643452 
z
" style="fill:#54b5db;"/>
   </g>
   <g id="patch_33">
    <path clip-path="url(#p1cd7d97554)" d="M 130.32 23192.691687 
L 139.248 23192.691687 
L 139.248 349.750861 
L 130.32 349.750861 
z
" style="fill:#ace078;"/>
   </g>
   <g id="patch_34">
    <path clip-path="url(#p1cd7d97554)" d="M 174.96 23192.691687 
L 183.888 23192.691687 
L 183.888 349.081192 
L 174.96 349.081192 
z
" style="fill:#ace078;"/>
   </g>
   <g id="patch_35">
    <path clip-path="url(#p1cd7d97554)" d="M 219.6 23192.691687 
L 228.528 23192.691687 
L 228.528 346.947198 
L 219.6 346.947198 
z
" style="fill:#ace078;"/>
   </g>
   <g id="patch_36">
    <path clip-path="url(#p1cd7d97554)" d="M 264.24 23192.691687 
L 273.168 23192.691687 
L 273.168 346.512444 
L 264.24 346.512444 
z
" style="fill:#ace078;"/>
   </g>
   <g id="patch_37">
    <path clip-path="url(#p1cd7d97554)" d="M 308.88 23192.691687 
L 317.808 23192.691687 
L 317.808 339.198894 
L 308.88 339.198894 
z
" style="fill:#ace078;"/>
   </g>
   <g id="patch_38">
    <path clip-path="url(#p1cd7d97554)" d="M 353.52 23192.691687 
L 362.448 23192.691687 
L 362.448 332.058678 
L 353.52 332.058678 
z
" style="fill:#ace078;"/>
   </g>
   <g id="patch_39">
    <path clip-path="url(#p1cd7d97554)" d="M 398.16 23192.691687 
L 407.088 23192.691687 
L 407.088 325.145195 
L 398.16 325.145195 
z
" style="fill:#ace078;"/>
   </g>
   <g id="patch_40">
    <path clip-path="url(#p1cd7d97554)" d="M 442.8 23192.691687 
L 451.728 23192.691687 
L 451.728 316.782424 
L 442.8 316.782424 
z
" style="fill:#ace078;"/>
   </g>
   <g id="patch_41">
    <path clip-path="url(#p1cd7d97554)" d="M 487.44 23192.691687 
L 496.368 23192.691687 
L 496.368 278.161142 
L 487.44 278.161142 
z
" style="fill:#ace078;"/>
   </g>
   <g id="patch_42">
    <path clip-path="url(#p1cd7d97554)" d="M 532.08 23192.691687 
L 541.008 23192.691687 
L 541.008 239.486728 
L 532.08 239.486728 
z
" style="fill:#ace078;"/>
   </g>
   <g id="patch_43">
    <path clip-path="url(#p1cd7d97554)" d="M 576.72 23192.691687 
L 585.648 23192.691687 
L 585.648 232.983894 
L 576.72 232.983894 
z
" style="fill:#ace078;"/>
   </g>
   <g id="patch_44">
    <path clip-path="url(#p1cd7d97554)" d="M 621.36 23192.691687 
L 630.288 23192.691687 
L 630.288 217.385308 
L 621.36 217.385308 
z
" style="fill:#ace078;"/>
   </g>
   <g id="patch_45">
    <path clip-path="url(#p1cd7d97554)" d="M 666 23192.691687 
L 674.928 23192.691687 
L 674.928 190.043951 
L 666 190.043951 
z
" style="fill:#ace078;"/>
   </g>
   <g id="patch_46">
    <path clip-path="url(#p1cd7d97554)" d="M 710.64 23192.691687 
L 719.568 23192.691687 
L 719.568 178.977602 
L 710.64 178.977602 
z
" style="fill:#ace078;"/>
   </g>
   <g id="patch_47">
    <path clip-path="url(#p1cd7d97554)" d="M 755.28 23192.691687 
L 764.208 23192.691687 
L 764.208 157.744205 
L 755.28 157.744205 
z
" style="fill:#ace078;"/>
   </g>
   <g id="patch_48">
    <path clip-path="url(#p1cd7d97554)" d="M 139.248 23192.691687 
L 148.176 23192.691687 
L 148.176 327.617089 
L 139.248 327.617089 
z
" style="fill:#e8aa86;"/>
   </g>
   <g id="patch_49">
    <path clip-path="url(#p1cd7d97554)" d="M 183.888 23192.691687 
L 192.816 23192.691687 
L 192.816 324.906611 
L 183.888 324.906611 
z
" style="fill:#e8aa86;"/>
   </g>
   <g id="patch_50">
    <path clip-path="url(#p1cd7d97554)" d="M 228.528 23192.691687 
L 237.456 23192.691687 
L 237.456 321.264791 
L 228.528 321.264791 
z
" style="fill:#e8aa86;"/>
   </g>
   <g id="patch_51">
    <path clip-path="url(#p1cd7d97554)" d="M 273.168 23192.691687 
L 282.096 23192.691687 
L 282.096 314.045345 
L 273.168 314.045345 
z
" style="fill:#e8aa86;"/>
   </g>
   <g id="patch_52">
    <path clip-path="url(#p1cd7d97554)" d="M 317.808 23192.691687 
L 326.736 23192.691687 
L 326.736 302.787165 
L 317.808 302.787165 
z
" style="fill:#e8aa86;"/>
   </g>
   <g id="patch_53">
    <path clip-path="url(#p1cd7d97554)" d="M 362.448 23192.691687 
L 371.376 23192.691687 
L 371.376 288.805643 
L 362.448 288.805643 
z
" style="fill:#e8aa86;"/>
   </g>
   <g id="patch_54">
    <path clip-path="url(#p1cd7d97554)" d="M 407.088 23192.691687 
L 416.016 23192.691687 
L 416.016 271.010765 
L 407.088 271.010765 
z
" style="fill:#e8aa86;"/>
   </g>
   <g id="patch_55">
    <path clip-path="url(#p1cd7d97554)" d="M 451.728 23192.691687 
L 460.656 23192.691687 
L 460.656 251.701526 
L 451.728 251.701526 
z
" style="fill:#e8aa86;"/>
   </g>
   <g id="patch_56">
    <path clip-path="url(#p1cd7d97554)" d="M 496.368 23192.691687 
L 505.296 23192.691687 
L 505.296 229.722421 
L 496.368 229.722421 
z
" style="fill:#e8aa86;"/>
   </g>
   <g id="patch_57">
    <path clip-path="url(#p1cd7d97554)" d="M 541.008 23192.691687 
L 549.936 23192.691687 
L 549.936 208.182451 
L 541.008 208.182451 
z
" style="fill:#e8aa86;"/>
   </g>
   <g id="patch_58">
    <path clip-path="url(#p1cd7d97554)" d="M 585.648 23192.691687 
L 594.576 23192.691687 
L 594.576 183.852215 
L 585.648 183.852215 
z
" style="fill:#e8aa86;"/>
   </g>
   <g id="patch_59">
    <path clip-path="url(#p1cd7d97554)" d="M 630.288 23192.691687 
L 639.216 23192.691687 
L 639.216 158.1137 
L 630.288 158.1137 
z
" style="fill:#e8aa86;"/>
   </g>
   <g id="patch_60">
    <path clip-path="url(#p1cd7d97554)" d="M 674.928 23192.691687 
L 683.856 23192.691687 
L 683.856 134.79938 
L 674.928 134.79938 
z
" style="fill:#e8aa86;"/>
   </g>
   <g id="patch_61">
    <path clip-path="url(#p1cd7d97554)" d="M 719.568 23192.691687 
L 728.496 23192.691687 
L 728.496 112.697341 
L 719.568 112.697341 
z
" style="fill:#e8aa86;"/>
   </g>
   <g id="patch_62">
    <path clip-path="url(#p1cd7d97554)" d="M 764.208 23192.691687 
L 773.136 23192.691687 
L 773.136 88.946767 
L 764.208 88.946767 
z
" style="fill:#e8aa86;"/>
   </g>
   <g id="line2d_73">
    <path clip-path="url(#p1cd7d97554)" d="M 0 0 
" style="fill:none;stroke:#424242;stroke-linecap:round;stroke-width:3.15;"/>
   </g>
   <g id="line2d_74">
    <path clip-path="url(#p1cd7d97554)" d="M 0 0 
" style="fill:none;stroke:#424242;stroke-linecap:round;stroke-width:3.15;"/>
   </g>
   <g id="line2d_75">
    <path clip-path="url(#p1cd7d97554)" d="M 0 0 
" style="fill:none;stroke:#424242;stroke-linecap:round;stroke-width:3.15;"/>
   </g>
   <g id="line2d_76">
    <path clip-path="url(#p1cd7d97554)" d="M 0 0 
" style="fill:none;stroke:#424242;stroke-linecap:round;stroke-width:3.15;"/>
   </g>
   <g id="line2d_77">
    <path clip-path="url(#p1cd7d97554)" d="M 0 0 
" style="fill:none;stroke:#424242;stroke-linecap:round;stroke-width:3.15;"/>
   </g>
   <g id="line2d_78">
    <path clip-path="url(#p1cd7d97554)" d="M 0 0 
" style="fill:none;stroke:#424242;stroke-linecap:round;stroke-width:3.15;"/>
   </g>
   <g id="line2d_79">
    <path clip-path="url(#p1cd7d97554)" d="M 0 0 
" style="fill:none;stroke:#424242;stroke-linecap:round;stroke-width:3.15;"/>
   </g>
   <g id="line2d_80">
    <path clip-path="url(#p1cd7d97554)" d="M 0 0 
" style="fill:none;stroke:#424242;stroke-linecap:round;stroke-width:3.15;"/>
   </g>
   <g id="line2d_81">
    <path clip-path="url(#p1cd7d97554)" d="M 0 0 
" style="fill:none;stroke:#424242;stroke-linecap:round;stroke-width:3.15;"/>
   </g>
   <g id="line2d_82">
    <path clip-path="url(#p1cd7d97554)" d="M 0 0 
" style="fill:none;stroke:#424242;stroke-linecap:round;stroke-width:3.15;"/>
   </g>
   <g id="line2d_83">
    <path clip-path="url(#p1cd7d97554)" d="M 0 0 
" style="fill:none;stroke:#424242;stroke-linecap:round;stroke-width:3.15;"/>
   </g>
   <g id="line2d_84">
    <path clip-path="url(#p1cd7d97554)" d="M 0 0 
" style="fill:none;stroke:#424242;stroke-linecap:round;stroke-width:3.15;"/>
   </g>
   <g id="line2d_85">
    <path clip-path="url(#p1cd7d97554)" d="M 0 0 
" style="fill:none;stroke:#424242;stroke-linecap:round;stroke-width:3.15;"/>
   </g>
   <g id="line2d_86">
    <path clip-path="url(#p1cd7d97554)" d="M 0 0 
" style="fill:none;stroke:#424242;stroke-linecap:round;stroke-width:3.15;"/>
   </g>
   <g id="line2d_87">
    <path clip-path="url(#p1cd7d97554)" d="M 0 0 
" style="fill:none;stroke:#424242;stroke-linecap:round;stroke-width:3.15;"/>
   </g>
   <g id="line2d_88">
    <path clip-path="url(#p1cd7d97554)" d="M 0 0 
" style="fill:none;stroke:#424242;stroke-linecap:round;stroke-width:3.15;"/>
   </g>
   <g id="line2d_89">
    <path clip-path="url(#p1cd7d97554)" d="M 0 0 
" style="fill:none;stroke:#424242;stroke-linecap:round;stroke-width:3.15;"/>
   </g>
   <g id="line2d_90">
    <path clip-path="url(#p1cd7d97554)" d="M 0 0 
" style="fill:none;stroke:#424242;stroke-linecap:round;stroke-width:3.15;"/>
   </g>
   <g id="line2d_91">
    <path clip-path="url(#p1cd7d97554)" d="M 0 0 
" style="fill:none;stroke:#424242;stroke-linecap:round;stroke-width:3.15;"/>
   </g>
   <g id="line2d_92">
    <path clip-path="url(#p1cd7d97554)" d="M 0 0 
" style="fill:none;stroke:#424242;stroke-linecap:round;stroke-width:3.15;"/>
   </g>
   <g id="line2d_93">
    <path clip-path="url(#p1cd7d97554)" d="M 0 0 
" style="fill:none;stroke:#424242;stroke-linecap:round;stroke-width:3.15;"/>
   </g>
   <g id="line2d_94">
    <path clip-path="url(#p1cd7d97554)" d="M 0 0 
" style="fill:none;stroke:#424242;stroke-linecap:round;stroke-width:3.15;"/>
   </g>
   <g id="line2d_95">
    <path clip-path="url(#p1cd7d97554)" d="M 0 0 
" style="fill:none;stroke:#424242;stroke-linecap:round;stroke-width:3.15;"/>
   </g>
   <g id="line2d_96">
    <path clip-path="url(#p1cd7d97554)" d="M 0 0 
" style="fill:none;stroke:#424242;stroke-linecap:round;stroke-width:3.15;"/>
   </g>
   <g id="line2d_97">
    <path clip-path="url(#p1cd7d97554)" d="M 0 0 
" style="fill:none;stroke:#424242;stroke-linecap:round;stroke-width:3.15;"/>
   </g>
   <g id="line2d_98">
    <path clip-path="url(#p1cd7d97554)" d="M 0 0 
" style="fill:none;stroke:#424242;stroke-linecap:round;stroke-width:3.15;"/>
   </g>
   <g id="line2d_99">
    <path clip-path="url(#p1cd7d97554)" d="M 0 0 
" style="fill:none;stroke:#424242;stroke-linecap:round;stroke-width:3.15;"/>
   </g>
   <g id="line2d_100">
    <path clip-path="url(#p1cd7d97554)" d="M 0 0 
" style="fill:none;stroke:#424242;stroke-linecap:round;stroke-width:3.15;"/>
   </g>
   <g id="line2d_101">
    <path clip-path="url(#p1cd7d97554)" d="M 0 0 
" style="fill:none;stroke:#424242;stroke-linecap:round;stroke-width:3.15;"/>
   </g>
   <g id="line2d_102">
    <path clip-path="url(#p1cd7d97554)" d="M 0 0 
" style="fill:none;stroke:#424242;stroke-linecap:round;stroke-width:3.15;"/>
   </g>
   <g id="line2d_103">
    <path clip-path="url(#p1cd7d97554)" d="M 0 0 
" style="fill:none;stroke:#424242;stroke-linecap:round;stroke-width:3.15;"/>
   </g>
   <g id="line2d_104">
    <path clip-path="url(#p1cd7d97554)" d="M 0 0 
" style="fill:none;stroke:#424242;stroke-linecap:round;stroke-width:3.15;"/>
   </g>
   <g id="line2d_105">
    <path clip-path="url(#p1cd7d97554)" d="M 0 0 
" style="fill:none;stroke:#424242;stroke-linecap:round;stroke-width:3.15;"/>
   </g>
   <g id="line2d_106">
    <path clip-path="url(#p1cd7d97554)" d="M 0 0 
" style="fill:none;stroke:#424242;stroke-linecap:round;stroke-width:3.15;"/>
   </g>
   <g id="line2d_107">
    <path clip-path="url(#p1cd7d97554)" d="M 0 0 
" style="fill:none;stroke:#424242;stroke-linecap:round;stroke-width:3.15;"/>
   </g>
   <g id="line2d_108">
    <path clip-path="url(#p1cd7d97554)" d="M 0 0 
" style="fill:none;stroke:#424242;stroke-linecap:round;stroke-width:3.15;"/>
   </g>
   <g id="line2d_109">
    <path clip-path="url(#p1cd7d97554)" d="M 0 0 
" style="fill:none;stroke:#424242;stroke-linecap:round;stroke-width:3.15;"/>
   </g>
   <g id="line2d_110">
    <path clip-path="url(#p1cd7d97554)" d="M 0 0 
" style="fill:none;stroke:#424242;stroke-linecap:round;stroke-width:3.15;"/>
   </g>
   <g id="line2d_111">
    <path clip-path="url(#p1cd7d97554)" d="M 0 0 
" style="fill:none;stroke:#424242;stroke-linecap:round;stroke-width:3.15;"/>
   </g>
   <g id="line2d_112">
    <path clip-path="url(#p1cd7d97554)" d="M 0 0 
" style="fill:none;stroke:#424242;stroke-linecap:round;stroke-width:3.15;"/>
   </g>
   <g id="line2d_113">
    <path clip-path="url(#p1cd7d97554)" d="M 0 0 
" style="fill:none;stroke:#424242;stroke-linecap:round;stroke-width:3.15;"/>
   </g>
   <g id="line2d_114">
    <path clip-path="url(#p1cd7d97554)" d="M 0 0 
" style="fill:none;stroke:#424242;stroke-linecap:round;stroke-width:3.15;"/>
   </g>
   <g id="line2d_115">
    <path clip-path="url(#p1cd7d97554)" d="M 0 0 
" style="fill:none;stroke:#424242;stroke-linecap:round;stroke-width:3.15;"/>
   </g>
   <g id="line2d_116">
    <path clip-path="url(#p1cd7d97554)" d="M 0 0 
" style="fill:none;stroke:#424242;stroke-linecap:round;stroke-width:3.15;"/>
   </g>
   <g id="line2d_117">
    <path clip-path="url(#p1cd7d97554)" d="M 0 0 
" style="fill:none;stroke:#424242;stroke-linecap:round;stroke-width:3.15;"/>
   </g>
   <g id="line2d_118">
    <path clip-path="url(#p1cd7d97554)" d="M 0 0 
" style="fill:none;stroke:#424242;stroke-linecap:round;stroke-width:3.15;"/>
   </g>
   <g id="line2d_119">
    <path clip-path="url(#p1cd7d97554)" d="M 0 0 
" style="fill:none;stroke:#424242;stroke-linecap:round;stroke-width:3.15;"/>
   </g>
   <g id="line2d_120">
    <path clip-path="url(#p1cd7d97554)" d="M 0 0 
" style="fill:none;stroke:#424242;stroke-linecap:round;stroke-width:3.15;"/>
   </g>
   <g id="line2d_121">
    <path clip-path="url(#p1cd7d97554)" d="M 0 0 
" style="fill:none;stroke:#424242;stroke-linecap:round;stroke-width:3.15;"/>
   </g>
   <g id="line2d_122">
    <path clip-path="url(#p1cd7d97554)" d="M 0 0 
" style="fill:none;stroke:#424242;stroke-linecap:round;stroke-width:3.15;"/>
   </g>
   <g id="line2d_123">
    <path clip-path="url(#p1cd7d97554)" d="M 0 0 
" style="fill:none;stroke:#424242;stroke-linecap:round;stroke-width:3.15;"/>
   </g>
   <g id="line2d_124">
    <path clip-path="url(#p1cd7d97554)" d="M 0 0 
" style="fill:none;stroke:#424242;stroke-linecap:round;stroke-width:3.15;"/>
   </g>
   <g id="line2d_125">
    <path clip-path="url(#p1cd7d97554)" d="M 0 0 
" style="fill:none;stroke:#424242;stroke-linecap:round;stroke-width:3.15;"/>
   </g>
   <g id="line2d_126">
    <path clip-path="url(#p1cd7d97554)" d="M 0 0 
" style="fill:none;stroke:#424242;stroke-linecap:round;stroke-width:3.15;"/>
   </g>
   <g id="line2d_127">
    <path clip-path="url(#p1cd7d97554)" d="M 0 0 
" style="fill:none;stroke:#424242;stroke-linecap:round;stroke-width:3.15;"/>
   </g>
   <g id="line2d_128">
    <path clip-path="url(#p1cd7d97554)" d="M 0 0 
" style="fill:none;stroke:#424242;stroke-linecap:round;stroke-width:3.15;"/>
   </g>
   <g id="line2d_129">
    <path clip-path="url(#p1cd7d97554)" d="M 0 0 
" style="fill:none;stroke:#424242;stroke-linecap:round;stroke-width:3.15;"/>
   </g>
   <g id="line2d_130">
    <path clip-path="url(#p1cd7d97554)" d="M 0 0 
" style="fill:none;stroke:#424242;stroke-linecap:round;stroke-width:3.15;"/>
   </g>
   <g id="line2d_131">
    <path clip-path="url(#p1cd7d97554)" d="M 0 0 
" style="fill:none;stroke:#424242;stroke-linecap:round;stroke-width:3.15;"/>
   </g>
   <g id="line2d_132">
    <path clip-path="url(#p1cd7d97554)" d="M 0 0 
" style="fill:none;stroke:#424242;stroke-linecap:round;stroke-width:3.15;"/>
   </g>
   <g id="patch_63">
    <path d="M 108 504 
L 108 69.12 
" style="fill:none;"/>
   </g>
   <g id="patch_64">
    <path d="M 777.6 504 
L 777.6 69.12 
" style="fill:none;"/>
   </g>
   <g id="patch_65">
    <path d="M 108 504 
L 777.6 504 
" style="fill:none;"/>
   </g>
   <g id="patch_66">
    <path d="M 108 69.12 
L 777.6 69.12 
" style="fill:none;"/>
   </g>
   <g id="text_24">
    <!-- get_blob: cpu times per iteration on a logarithmic scale (smaller is better) -->
    <defs>
     <path d="M 4.984375 -4.296875 
L 13.53125 -5.5625 
Q 14.0625 -9.515625 16.5 -11.328125 
Q 19.78125 -13.765625 25.4375 -13.765625 
Q 31.546875 -13.765625 34.859375 -11.328125 
Q 38.1875 -8.890625 39.359375 -4.5 
Q 40.046875 -1.8125 39.984375 6.78125 
Q 34.234375 0 25.640625 0 
Q 14.9375 0 9.078125 7.71875 
Q 3.21875 15.4375 3.21875 26.21875 
Q 3.21875 33.640625 5.90625 39.90625 
Q 8.59375 46.1875 13.6875 49.609375 
Q 18.796875 53.03125 25.6875 53.03125 
Q 34.859375 53.03125 40.828125 45.609375 
L 40.828125 51.859375 
L 48.921875 51.859375 
L 48.921875 7.03125 
Q 48.921875 -5.078125 46.453125 -10.125 
Q 44 -15.1875 38.640625 -18.109375 
Q 33.296875 -21.046875 25.484375 -21.046875 
Q 16.21875 -21.046875 10.5 -16.875 
Q 4.78125 -12.703125 4.984375 -4.296875 
M 12.25 26.859375 
Q 12.25 16.65625 16.296875 11.96875 
Q 20.359375 7.28125 26.46875 7.28125 
Q 32.515625 7.28125 36.609375 11.9375 
Q 40.71875 16.609375 40.71875 26.5625 
Q 40.71875 36.078125 36.5 40.90625 
Q 32.28125 45.75 26.3125 45.75 
Q 20.453125 45.75 16.34375 40.984375 
Q 12.25 36.234375 12.25 26.859375 
" id="ArialMT-67"/>
     <path d="M -1.515625 -19.875 
L -1.515625 -13.53125 
L 56.734375 -13.53125 
L 56.734375 -19.875 
z
" id="ArialMT-5f"/>
     <path d="M 9.03125 41.84375 
L 9.03125 51.859375 
L 19.046875 51.859375 
L 19.046875 41.84375 
z
M 9.03125 0 
L 9.03125 10.015625 
L 19.046875 10.015625 
L 19.046875 0 
z
" id="ArialMT-3a"/>
     <path d="M 40.4375 19 
L 49.078125 17.875 
Q 47.65625 8.9375 41.8125 3.875 
Q 35.984375 -1.171875 27.484375 -1.171875 
Q 16.84375 -1.171875 10.375 5.78125 
Q 3.90625 12.75 3.90625 25.734375 
Q 3.90625 34.125 6.6875 40.421875 
Q 9.46875 46.734375 15.15625 49.875 
Q 20.84375 53.03125 27.546875 53.03125 
Q 35.984375 53.03125 41.359375 48.75 
Q 46.734375 44.484375 48.25 36.625 
L 39.703125 35.296875 
Q 38.484375 40.53125 35.375 43.15625 
Q 32.28125 45.796875 27.875 45.796875 
Q 21.234375 45.796875 17.078125 41.03125 
Q 12.9375 36.28125 12.9375 25.984375 
Q 12.9375 15.53125 16.9375 10.796875 
Q 20.953125 6.0625 27.390625 6.0625 
Q 32.5625 6.0625 36.03125 9.234375 
Q 39.5 12.40625 40.4375 19 
" id="ArialMT-63"/>
     <path d="M 6.59375 -19.875 
L 6.59375 51.859375 
L 14.59375 51.859375 
L 14.59375 45.125 
Q 17.4375 49.078125 21 51.046875 
Q 24.5625 53.03125 29.640625 53.03125 
Q 36.28125 53.03125 41.359375 49.609375 
Q 46.4375 46.1875 49.015625 39.953125 
Q 51.609375 33.734375 51.609375 26.3125 
Q 51.609375 18.359375 48.75 11.984375 
Q 45.90625 5.609375 40.453125 2.21875 
Q 35.015625 -1.171875 29 -1.171875 
Q 24.609375 -1.171875 21.109375 0.6875 
Q 17.625 2.546875 15.375 5.375 
L 15.375 -19.875 
z
M 14.546875 25.640625 
Q 14.546875 15.625 18.59375 10.84375 
Q 22.65625 6.0625 28.421875 6.0625 
Q 34.28125 6.0625 38.453125 11.015625 
Q 42.625 15.96875 42.625 26.375 
Q 42.625 36.28125 38.546875 41.203125 
Q 34.46875 46.140625 28.8125 46.140625 
Q 23.1875 46.140625 18.859375 40.890625 
Q 14.546875 35.640625 14.546875 25.640625 
" id="ArialMT-70"/>
     <path d="M 40.578125 0 
L 40.578125 7.625 
Q 34.515625 -1.171875 24.125 -1.171875 
Q 19.53125 -1.171875 15.546875 0.578125 
Q 11.578125 2.34375 9.640625 5 
Q 7.71875 7.671875 6.9375 11.53125 
Q 6.390625 14.109375 6.390625 19.734375 
L 6.390625 51.859375 
L 15.1875 51.859375 
L 15.1875 23.09375 
Q 15.1875 16.21875 15.71875 13.8125 
Q 16.546875 10.359375 19.234375 8.375 
Q 21.921875 6.390625 25.875 6.390625 
Q 29.828125 6.390625 33.296875 8.421875 
Q 36.765625 10.453125 38.203125 13.9375 
Q 39.65625 17.4375 39.65625 24.078125 
L 39.65625 51.859375 
L 48.4375 51.859375 
L 48.4375 0 
z
" id="ArialMT-75"/>
     <path d="M 6.59375 0 
L 6.59375 71.578125 
L 15.375 71.578125 
L 15.375 45.90625 
Q 21.53125 53.03125 30.90625 53.03125 
Q 36.671875 53.03125 40.921875 50.75 
Q 45.171875 48.484375 47 44.484375 
Q 48.828125 40.484375 48.828125 32.859375 
L 48.828125 0 
L 40.046875 0 
L 40.046875 32.859375 
Q 40.046875 39.453125 37.1875 42.453125 
Q 34.328125 45.453125 29.109375 45.453125 
Q 25.203125 45.453125 21.75 43.421875 
Q 18.3125 41.40625 16.84375 37.9375 
Q 15.375 34.46875 15.375 28.375 
L 15.375 0 
z
" id="ArialMT-68"/>
    </defs>
    <g style="fill:#262626;" transform="translate(249.726563 63.12)scale(0.12 -0.12)">
     <use xlink:href="#ArialMT-67"/>
     <use x="55.615234" xlink:href="#ArialMT-65"/>
     <use x="111.230469" xlink:href="#ArialMT-74"/>
     <use x="139.013672" xlink:href="#ArialMT-5f"/>
     <use x="194.628906" xlink:href="#ArialMT-62"/>
     <use x="250.244141" xlink:href="#ArialMT-6c"/>
     <use x="272.460938" xlink:href="#ArialMT-6f"/>
     <use x="328.076172" xlink:href="#ArialMT-62"/>
     <use x="383.691406" xlink:href="#ArialMT-3a"/>
     <use x="411.474609" xlink:href="#ArialMT-20"/>
     <use x="439.257812" xlink:href="#ArialMT-63"/>
     <use x="489.257812" xlink:href="#ArialMT-70"/>
     <use x="544.873047" xlink:href="#ArialMT-75"/>
     <use x="600.488281" xlink:href="#ArialMT-20"/>
     <use x="628.271484" xlink:href="#ArialMT-74"/>
     <use x="656.054688" xlink:href="#ArialMT-69"/>
     <use x="678.271484" xlink:href="#ArialMT-6d"/>
     <use x="761.572266" xlink:href="#ArialMT-65"/>
     <use x="817.1875" xlink:href="#ArialMT-73"/>
     <use x="867.1875" xlink:href="#ArialMT-20"/>
     <use x="894.970703" xlink:href="#ArialMT-70"/>
     <use x="950.585938" xlink:href="#ArialMT-65"/>
     <use x="1006.201172" xlink:href="#ArialMT-72"/>
     <use x="1039.501953" xlink:href="#ArialMT-20"/>
     <use x="1067.285156" xlink:href="#ArialMT-69"/>
     <use x="1089.501953" xlink:href="#ArialMT-74"/>
     <use x="1117.285156" xlink:href="#ArialMT-65"/>
     <use x="1172.900391" xlink:href="#ArialMT-72"/>
     <use x="1206.201172" xlink:href="#ArialMT-61"/>
     <use x="1261.816406" xlink:href="#ArialMT-74"/>
     <use x="1289.599609" xlink:href="#ArialMT-69"/>
     <use x="1311.816406" xlink:href="#ArialMT-6f"/>
     <use x="1367.431641" xlink:href="#ArialMT-6e"/>
     <use x="1423.046875" xlink:href="#ArialMT-20"/>
     <use x="1450.830078" xlink:href="#ArialMT-6f"/>
     <use x="1506.445312" xlink:href="#ArialMT-6e"/>
     <use x="1562.060547" xlink:href="#ArialMT-20"/>
     <use x="1589.84375" xlink:href="#ArialMT-61"/>
     <use x="1645.458984" xlink:href="#ArialMT-20"/>
     <use x="1673.242188" xlink:href="#ArialMT-6c"/>
     <use x="1695.458984" xlink:href="#ArialMT-6f"/>
     <use x="1751.074219" xlink:href="#ArialMT-67"/>
     <use x="1806.689453" xlink:href="#ArialMT-61"/>
     <use x="1862.304688" xlink:href="#ArialMT-72"/>
     <use x="1895.605469" xlink:href="#ArialMT-69"/>
     <use x="1917.822266" xlink:href="#ArialMT-74"/>
     <use x="1945.605469" xlink:href="#ArialMT-68"/>
     <use x="2001.220703" xlink:href="#ArialMT-6d"/>
     <use x="2084.521484" xlink:href="#ArialMT-69"/>
     <use x="2106.738281" xlink:href="#ArialMT-63"/>
     <use x="2156.738281" xlink:href="#ArialMT-20"/>
     <use x="2184.521484" xlink:href="#ArialMT-73"/>
     <use x="2234.521484" xlink:href="#ArialMT-63"/>
     <use x="2284.521484" xlink:href="#ArialMT-61"/>
     <use x="2340.136719" xlink:href="#ArialMT-6c"/>
     <use x="2362.353516" xlink:href="#ArialMT-65"/>
     <use x="2417.96875" xlink:href="#ArialMT-20"/>
     <use x="2445.751953" xlink:href="#ArialMT-28"/>
     <use x="2479.052734" xlink:href="#ArialMT-73"/>
     <use x="2529.052734" xlink:href="#ArialMT-6d"/>
     <use x="2612.353516" xlink:href="#ArialMT-61"/>
     <use x="2667.96875" xlink:href="#ArialMT-6c"/>
     <use x="2690.185547" xlink:href="#ArialMT-6c"/>
     <use x="2712.402344" xlink:href="#ArialMT-65"/>
     <use x="2768.017578" xlink:href="#ArialMT-72"/>
     <use x="2801.318359" xlink:href="#ArialMT-20"/>
     <use x="2829.101562" xlink:href="#ArialMT-69"/>
     <use x="2851.318359" xlink:href="#ArialMT-73"/>
     <use x="2901.318359" xlink:href="#ArialMT-20"/>
     <use x="2929.101562" xlink:href="#ArialMT-62"/>
     <use x="2984.716797" xlink:href="#ArialMT-65"/>
     <use x="3040.332031" xlink:href="#ArialMT-74"/>
     <use x="3068.115234" xlink:href="#ArialMT-74"/>
     <use x="3095.898438" xlink:href="#ArialMT-65"/>
     <use x="3151.513672" xlink:href="#ArialMT-72"/>
     <use x="3184.814453" xlink:href="#ArialMT-29"/>
    </g>
   </g>
   <g id="legend_1">
    <g id="patch_67">
     <path d="M 120.6 91.740937 
L 148.6 91.740937 
L 148.6 81.940937 
L 120.6 81.940937 
z
" style="fill:#df6f8d;"/>
    </g>
    <g id="text_25">
     <!-- capnp -->
     <g style="fill:#262626;" transform="translate(159.8 91.740937)scale(0.14 -0.14)">
      <use xlink:href="#ArialMT-63"/>
      <use x="50" xlink:href="#ArialMT-61"/>
      <use x="105.615234" xlink:href="#ArialMT-70"/>
      <use x="161.230469" xlink:href="#ArialMT-6e"/>
      <use x="216.845703" xlink:href="#ArialMT-70"/>
     </g>
    </g>
    <g id="patch_68">
     <path d="M 120.6 111.544375 
L 148.6 111.544375 
L 148.6 101.744375 
L 120.6 101.744375 
z
" style="fill:#54b5db;"/>
    </g>
    <g id="text_26">
     <!-- direct -->
     <defs>
      <path d="M 40.234375 0 
L 40.234375 6.546875 
Q 35.296875 -1.171875 25.734375 -1.171875 
Q 19.53125 -1.171875 14.328125 2.25 
Q 9.125 5.671875 6.265625 11.796875 
Q 3.421875 17.921875 3.421875 25.875 
Q 3.421875 33.640625 6 39.96875 
Q 8.59375 46.296875 13.765625 49.65625 
Q 18.953125 53.03125 25.34375 53.03125 
Q 30.03125 53.03125 33.6875 51.046875 
Q 37.359375 49.078125 39.65625 45.90625 
L 39.65625 71.578125 
L 48.390625 71.578125 
L 48.390625 0 
z
M 12.453125 25.875 
Q 12.453125 15.921875 16.640625 10.984375 
Q 20.84375 6.0625 26.5625 6.0625 
Q 32.328125 6.0625 36.34375 10.765625 
Q 40.375 15.484375 40.375 25.140625 
Q 40.375 35.796875 36.265625 40.765625 
Q 32.171875 45.75 26.171875 45.75 
Q 20.3125 45.75 16.375 40.96875 
Q 12.453125 36.1875 12.453125 25.875 
" id="ArialMT-64"/>
     </defs>
     <g style="fill:#262626;" transform="translate(159.8 111.544375)scale(0.14 -0.14)">
      <use xlink:href="#ArialMT-64"/>
      <use x="55.615234" xlink:href="#ArialMT-69"/>
      <use x="77.832031" xlink:href="#ArialMT-72"/>
      <use x="111.132812" xlink:href="#ArialMT-65"/>
      <use x="166.748047" xlink:href="#ArialMT-63"/>
      <use x="216.748047" xlink:href="#ArialMT-74"/>
     </g>
    </g>
    <g id="patch_69">
     <path d="M 120.6 131.347812 
L 148.6 131.347812 
L 148.6 121.547812 
L 120.6 121.547812 
z
" style="fill:#ace078;"/>
    </g>
    <g id="text_27">
     <!-- rpclib -->
     <g style="fill:#262626;" transform="translate(159.8 131.347812)scale(0.14 -0.14)">
      <use xlink:href="#ArialMT-72"/>
      <use x="33.300781" xlink:href="#ArialMT-70"/>
      <use x="88.916016" xlink:href="#ArialMT-63"/>
      <use x="138.916016" xlink:href="#ArialMT-6c"/>
      <use x="161.132812" xlink:href="#ArialMT-69"/>
      <use x="183.349609" xlink:href="#ArialMT-62"/>
     </g>
    </g>
    <g id="patch_70">
     <path d="M 120.6 151.15125 
L 148.6 151.15125 
L 148.6 141.35125 
L 120.6 141.35125 
z
" style="fill:#e8aa86;"/>
    </g>
    <g id="text_28">
     <!-- thrift -->
     <defs>
      <path d="M 8.6875 0 
L 8.6875 45.015625 
L 0.921875 45.015625 
L 0.921875 51.859375 
L 8.6875 51.859375 
L 8.6875 57.375 
Q 8.6875 62.59375 9.625 65.140625 
Q 10.890625 68.5625 14.078125 70.671875 
Q 17.28125 72.796875 23.046875 72.796875 
Q 26.765625 72.796875 31.25 71.921875 
L 29.9375 64.265625 
Q 27.203125 64.75 24.75 64.75 
Q 20.75 64.75 19.09375 63.03125 
Q 17.4375 61.328125 17.4375 56.640625 
L 17.4375 51.859375 
L 27.546875 51.859375 
L 27.546875 45.015625 
L 17.4375 45.015625 
L 17.4375 0 
z
" id="ArialMT-66"/>
     </defs>
     <g style="fill:#262626;" transform="translate(159.8 151.15125)scale(0.14 -0.14)">
      <use xlink:href="#ArialMT-74"/>
      <use x="27.783203" xlink:href="#ArialMT-68"/>
      <use x="83.398438" xlink:href="#ArialMT-72"/>
      <use x="116.699219" xlink:href="#ArialMT-69"/>
      <use x="138.916016" xlink:href="#ArialMT-66"/>
      <use x="166.699219" xlink:href="#ArialMT-74"/>
     </g>
    </g>
   </g>
  </g>
 </g>
 <defs>
  <clipPath id="p1cd7d97554">
   <rect height="434.88" width="669.6" x="108" y="69.12"/>
  </clipPath>
 </defs>
</svg>
